<?xml version="1.0" encoding="UTF-8"?>
<svg version="1.1" viewBox="0 0 160 160" xmlns="http://www.w3.org/2000/svg">
 <path d="m150 0c-25.833 0-48.709 19.659-70.107 37.281-10.699 8.8112-20.897 17.426-29.783 23.545s-16.498 9.1738-20.109 9.1738a10.001 10.001 0 0 0-4.8555 18.742c6.7776 3.7654 9.4899 7.0085 10.279 8.6387 0.78944 1.6302 0.78749 2.2032-0.22852 4.5977-1.7546 4.135-8.5719 11.051-15.768 18.08-10.664 0.31671-19.428 9.2098-19.428 19.941a10.001 10.001 0 0 0 0 0.05273c0.0087046 1.6679 0.2403 3.3183 0.65625 4.9199-0.40241 1.5505-0.65625 3.2238-0.65625 5.0273a10.001 10.001 0 0 0 10 10c1.8035 0 3.4769-0.25384 5.0273-0.65625 1.6016 0.41596 3.2521 0.64754 4.9199 0.65625a10.001 10.001 0 0 0 0.052734 0c10.732 0 19.625-8.7636 19.941-19.428 7.0286-7.1957 13.945-14.013 18.08-15.768 2.3944-1.016 2.9674-1.018 4.5977-0.22852 1.6302 0.78944 4.8733 3.5017 8.6387 10.279a10.001 10.001 0 0 0 18.742-4.8555c0-3.6111 3.0552-11.223 9.1738-20.109 6.1186-8.8865 14.734-19.084 23.545-29.783 17.622-21.399 37.281-44.274 37.281-70.107a10.001 10.001 0 0 0-10-10z" fill="#fff"/>
 <path d="m150 10c-40 0-90 70-120 70 31.317 17.398 9.3781 34.791-6.8711 50.504a10 10 0 0 0-3.1289-0.50391 10 10 0 0 0-10 10 10 10 0 0 0 1.2969 4.873c-0.80832 1.7414-1.2969 3.4527-1.2969 5.127 1.6742 0 3.3856-0.48856 5.127-1.2969a10 10 0 0 0 4.873 1.2969 10 10 0 0 0 10-10 10 10 0 0 0-0.50391-3.1289c15.713-16.249 33.106-38.188 50.504-6.8711 0-30 70-80 70-120z" fill="#73859b"/>
</svg>
